<?xml version="1.0" encoding="UTF-8" standalone="no"?>
<!DOCTYPE svg PUBLIC "-//W3C//DTD SVG 20010904//EN"
              "http://www.w3.org/TR/2001/REC-SVG-20010904/DTD/svg10.dtd">

<svg xmlns="http://www.w3.org/2000/svg"
     width="1.99in" height="0.646667in"
     viewBox="0 0 597 194">
  <path id="Red"
        fill="darkred" stroke="darkred" stroke-width="1"
        d="M 145.00,120.00
           C 145.00,120.00 155.00,120.00 155.00,120.00
             155.00,114.43 154.99,94.24 156.60,90.02
             158.32,85.49 165.38,81.00 165.96,91.00
             165.96,91.00 165.00,106.00 165.00,106.00
             165.00,106.00 165.00,120.00 165.00,120.00
             165.00,120.00 175.00,120.00 175.00,120.00
             175.00,120.00 175.00,101.00 175.00,101.00
             175.00,101.00 175.96,87.00 175.96,87.00
             175.76,81.87 174.88,74.93 168.98,73.45
             164.39,72.29 158.25,76.17 154.00,78.00
             150.76,69.26 142.50,74.25 136.00,76.00
             134.31,71.93 130.96,73.00 127.00,73.00
             127.00,73.00 126.00,92.00 126.00,92.00
             126.00,92.00 125.17,112.00 125.17,112.00
             124.28,121.31 125.21,127.41 119.20,136.00
             105.44,155.69 73.37,153.30 64.71,130.00
             61.96,122.59 61.40,117.91 65.81,111.00
             65.81,111.00 77.48,96.00 77.48,96.00
             86.39,82.77 91.49,67.63 94.08,52.00
             94.73,48.05 96.41,39.58 95.43,36.00
             94.20,31.52 90.13,28.27 87.04,25.00
             84.04,21.82 81.19,16.54 76.98,15.43
             67.89,13.05 63.92,24.78 67.57,31.96
             73.33,43.29 82.81,29.64 86.70,39.10
             87.96,42.18 86.12,50.64 85.35,54.00
             82.47,66.55 78.56,78.27 71.25,89.00
             68.09,93.65 65.05,98.46 59.00,98.94
             51.26,99.56 48.43,95.85 44.16,90.00
             37.43,80.78 31.89,66.19 29.60,55.00
             28.56,49.91 24.44,37.44 32.02,35.72
             33.95,35.27 36.07,36.44 38.00,36.70
             52.24,38.67 50.61,12.69 38.00,15.33
             34.03,16.17 30.76,21.00 28.25,24.00
             25.89,26.81 20.92,31.91 19.73,35.00
             18.45,38.37 19.24,42.54 19.73,46.00
             20.89,54.15 22.46,62.12 24.88,70.00
             27.74,79.30 31.65,87.98 37.20,96.00
             40.65,100.97 46.93,107.52 49.10,112.00
             56.19,126.64 51.85,138.97 68.00,151.47
             84.09,163.93 113.40,161.26 125.09,144.00
             132.78,132.63 134.31,114.49 134.96,101.00
             135.12,97.72 135.35,89.89 137.02,87.23
             138.93,84.17 145.80,81.31 146.00,92.00
             146.00,92.00 146.00,96.00 146.00,96.00
             146.00,96.00 145.00,111.00 145.00,111.00
             145.00,111.00 145.00,120.00 145.00,120.00 Z
           M 503.00,62.00
           C 509.72,61.44 508.49,59.66 509.00,54.00
             502.93,54.48 503.15,56.38 503.00,62.00 Z
           M 245.00,55.00
           C 245.00,55.00 244.00,75.00 244.00,75.00
             241.47,74.39 239.65,73.96 237.00,74.11
             223.01,74.89 222.08,86.00 220.58,97.00
             219.81,102.63 219.26,109.87 222.28,114.98
             227.26,123.35 236.01,119.84 242.00,114.98
             242.00,114.98 242.00,120.00 242.00,120.00
             242.00,120.00 252.00,120.00 252.00,120.00
             252.00,120.00 252.96,109.00 252.96,109.00
             252.96,109.00 252.96,95.00 252.96,95.00
             252.96,95.00 254.00,80.00 254.00,80.00
             254.00,80.00 255.00,55.00 255.00,55.00
             255.00,55.00 245.00,55.00 245.00,55.00 Z
           M 264.00,55.00
           C 264.00,55.00 263.00,67.00 263.00,67.00
             263.00,67.00 273.00,67.00 273.00,67.00
             273.00,67.00 273.00,55.00 273.00,55.00
             273.00,55.00 264.00,55.00 264.00,55.00 Z
           M 355.00,55.00
           C 353.71,62.19 354.03,62.94 354.00,70.00
             354.00,70.00 353.00,84.00 353.00,84.00
             353.00,84.00 352.00,107.00 352.00,107.00
             352.01,112.26 351.65,116.70 357.04,119.47
             359.02,120.59 362.32,121.45 363.98,119.47
             365.35,117.70 365.00,112.25 365.00,110.00
             365.00,110.00 362.00,110.00 362.00,110.00
             362.00,110.00 364.00,55.00 364.00,55.00
             364.00,55.00 355.00,55.00 355.00,55.00 Z
           M 263.00,73.00
           C 263.00,73.00 262.00,90.00 262.00,90.00
             262.00,90.00 262.00,103.00 262.00,103.00
             262.00,103.00 261.00,120.00 261.00,120.00
             261.00,120.00 271.00,120.00 271.00,120.00
             271.00,120.00 272.00,73.00 272.00,73.00
             272.00,73.00 263.00,73.00 263.00,73.00 Z
           M 333.00,115.00
           C 334.78,118.34 340.59,122.52 343.83,118.43
             345.25,116.62 344.99,112.26 345.00,110.00
             343.77,109.27 343.04,109.25 342.31,107.71
             340.83,104.62 342.89,89.25 342.99,85.00
             343.05,82.31 343.26,78.58 341.40,76.43
             337.00,71.35 321.77,73.49 317.11,77.42
             314.56,79.56 313.41,81.90 312.44,85.00
             309.70,93.80 306.34,116.00 318.00,119.49
             323.86,121.24 328.21,117.67 333.00,115.00 Z
           M 372.00,120.00
           C 375.71,120.00 386.07,120.40 389.00,119.26
             396.16,116.48 397.72,107.11 393.99,101.01
             389.99,94.46 380.02,91.56 381.23,85.02
             382.61,77.60 392.34,81.40 395.40,78.98
             397.14,77.60 396.93,74.98 397.00,73.00
             393.17,73.00 385.30,72.62 382.00,73.89
             373.88,77.01 372.15,86.15 376.70,93.00
             380.93,99.36 389.38,102.88 389.26,107.98
             389.06,116.08 376.40,112.84 373.74,114.99
             372.21,116.22 372.21,118.24 372.00,120.00 Z
           M 426.00,115.00
           C 419.99,116.08 412.57,117.13 409.74,109.98
             408.77,107.54 409.00,102.74 409.00,100.00
             412.61,100.00 417.63,100.26 421.00,99.20
             434.49,94.96 433.72,73.82 420.00,73.14
             417.07,73.00 414.40,73.79 412.02,75.51
             410.38,76.69 408.83,78.34 407.70,80.00
             405.82,82.79 404.84,86.71 404.28,90.00
             403.59,94.14 402.88,98.82 403.04,103.00
             403.24,108.03 404.40,114.14 408.21,117.72
             411.20,120.54 419.89,122.59 423.44,119.98
             424.96,118.86 425.43,116.69 426.00,115.00 Z
           M 440.00,73.00
           C 440.00,73.00 439.00,92.00 439.00,92.00
             439.00,92.00 438.04,105.00 438.04,105.00
             438.04,105.00 438.04,120.00 438.04,120.00
             438.04,120.00 443.00,121.00 443.00,121.00
             443.00,121.00 444.00,104.00 444.00,104.00
             444.05,99.23 443.56,91.30 445.51,87.04
             449.97,77.32 458.15,84.15 459.00,74.00
             451.91,74.07 450.61,74.46 445.00,79.00
             445.00,79.00 445.00,73.00 445.00,73.00
             445.00,73.00 440.00,73.00 440.00,73.00 Z
           M 464.00,73.00
           C 464.00,73.00 472.00,120.00 472.00,120.00
             472.00,120.00 480.00,121.00 480.00,121.00
             480.00,121.00 486.42,98.00 486.42,98.00
             486.42,98.00 492.00,73.00 492.00,73.00
             485.99,74.05 486.46,77.68 485.13,83.00
             485.13,83.00 477.00,114.00 477.00,114.00
             477.00,114.00 469.00,73.00 469.00,73.00
             469.00,73.00 464.00,73.00 464.00,73.00 Z
           M 503.00,73.00
           C 503.00,73.00 502.00,89.00 502.00,89.00
             502.00,89.00 501.00,102.00 501.00,102.00
             501.00,102.00 500.00,120.00 500.00,120.00
             500.00,120.00 505.00,121.00 505.00,121.00
             505.00,121.00 506.00,109.00 506.00,109.00
             506.00,109.00 507.04,96.00 507.04,96.00
             507.04,96.00 507.04,85.00 507.04,85.00
             507.04,85.00 508.00,73.00 508.00,73.00
             508.00,73.00 503.00,73.00 503.00,73.00 Z
           M 536.00,120.00
           C 536.00,120.00 536.00,115.80 536.00,115.80
             534.09,115.98 531.86,116.04 530.00,115.80
             519.64,113.20 522.37,103.48 522.91,96.00
             523.31,90.61 523.18,84.66 527.39,80.53
             531.18,76.81 535.11,77.02 540.00,77.00
             540.00,77.00 540.00,74.00 540.00,74.00
             522.65,69.07 518.17,81.46 518.00,96.00
             517.93,102.25 516.82,112.85 521.56,117.43
             525.09,120.85 531.38,120.00 536.00,120.00 Z
           M 567.00,120.00
           C 567.00,120.00 568.00,115.00 568.00,115.00
             562.01,115.00 553.52,116.42 551.21,108.98
             550.86,106.96 551.00,102.28 551.21,100.00
             557.64,100.00 565.77,99.97 569.99,93.82
             573.77,88.31 574.05,74.19 563.00,73.11
             547.05,71.55 544.73,91.34 545.01,103.00
             545.14,108.11 546.20,114.01 550.21,117.58
             555.30,122.12 560.99,120.79 567.00,120.00 Z
           M 208.00,120.00
           C 208.00,120.00 209.00,112.00 209.00,112.00
             204.87,112.00 199.47,112.73 196.28,109.69
             194.28,107.78 192.52,104.04 195.35,102.02
             198.51,99.77 204.96,102.97 210.61,96.79
             217.02,89.78 214.23,75.16 202.00,74.11
             188.03,72.91 184.13,86.82 184.00,98.00
             183.93,104.17 183.81,111.88 188.39,116.66
             193.73,122.24 201.19,121.22 208.00,120.00 Z
           M 304.00,120.00
           C 304.00,120.00 304.00,111.00 304.00,111.00
             300.37,111.65 296.47,112.71 293.23,110.26
             291.74,109.14 290.92,107.76 290.43,105.98
             289.26,101.74 290.93,87.45 294.28,84.51
             297.82,81.39 301.81,82.46 306.00,83.00
             305.99,81.05 306.26,77.28 305.01,75.74
             301.56,71.48 289.53,74.96 286.21,78.22
             280.32,84.03 279.89,101.26 281.68,109.00
             282.42,112.20 283.68,115.36 286.21,117.57
             291.49,122.20 297.85,120.50 304.00,120.00 Z
           M 410.00,95.00
           C 410.24,92.09 410.59,89.82 411.44,87.00
             411.89,85.49 412.56,83.53 413.41,82.21
             421.12,70.31 433.27,89.36 419.98,94.40
             417.82,95.23 412.52,95.00 410.00,95.00 Z
           M 560.01,78.47
           C 571.36,77.93 569.29,92.00 560.98,94.43
             547.41,98.41 552.09,81.62 560.01,78.47 Z
           M 194.00,92.00
           C 194.00,92.00 195.25,87.02 195.25,87.02
             195.63,86.07 196.04,85.10 196.72,84.32
             203.01,77.11 209.40,91.81 198.98,92.81
             197.09,92.99 195.75,92.49 194.00,92.00 Z
           M 328.95,82.57
           C 335.53,83.76 333.42,89.02 333.09,94.00
             332.66,100.38 334.26,109.53 325.02,110.44
             320.29,110.90 320.07,106.42 320.00,103.00
             319.86,95.18 319.51,84.58 328.95,82.57 Z
           M 244.00,83.00
           C 244.00,83.00 243.28,95.00 243.28,95.00
             243.28,95.00 242.69,103.98 242.69,103.98
             241.76,107.60 237.07,111.55 233.15,110.30
             229.33,109.09 229.94,103.17 230.01,100.00
             230.12,95.59 231.13,86.49 235.22,84.02
             237.38,82.72 241.48,83.00 244.00,83.00 Z
           M 135.00,148.00
           C 135.00,148.00 135.00,168.00 135.00,168.00
             135.00,168.00 150.00,168.00 150.00,168.00
             150.00,168.00 137.00,167.00 137.00,167.00
             137.00,167.00 137.00,159.00 137.00,159.00
             137.00,159.00 149.00,159.00 149.00,159.00
             149.00,159.00 149.00,157.00 149.00,157.00
             149.00,157.00 137.00,157.00 137.00,157.00
             137.00,157.00 137.00,150.00 137.00,150.00
             137.00,150.00 150.00,150.00 150.00,150.00
             150.00,150.00 150.00,148.00 150.00,148.00
             150.00,148.00 135.00,148.00 135.00,148.00 Z
           M 201.00,148.00
           C 201.00,148.00 201.00,168.00 201.00,168.00
             201.00,168.00 203.00,148.00 203.00,148.00
             203.00,148.00 201.00,148.00 201.00,148.00 Z
           M 327.00,162.00
           C 328.22,164.92 328.87,166.82 332.05,168.11
             336.90,170.08 343.14,167.65 343.14,163.00
             343.14,156.77 333.84,157.40 332.03,153.78
             330.72,151.16 334.01,148.59 338.71,150.76
             338.71,150.76 343.00,153.00 343.00,153.00
             338.64,144.53 328.63,148.16 328.63,153.00
             328.63,158.96 338.09,158.20 339.97,162.18
             341.41,165.22 337.02,168.27 332.26,165.32
             329.71,163.74 330.35,163.21 327.00,162.00 Z
           M 364.00,148.00
           C 364.00,148.00 364.00,168.00 364.00,168.00
             364.00,168.00 366.00,168.00 366.00,168.00
             366.00,168.00 366.00,148.00 366.00,148.00
             366.00,148.00 364.00,148.00 364.00,148.00 Z
           M 397.00,148.00
           C 397.00,148.00 397.00,155.01 397.00,155.01
             394.60,154.33 391.72,153.47 389.43,155.01
             386.05,157.32 386.45,164.78 389.43,167.26
             392.14,169.51 395.79,168.04 399.00,168.00
             399.00,168.00 399.00,148.00 399.00,148.00
             399.00,148.00 397.00,148.00 397.00,148.00 Z
           M 413.00,148.00
           C 413.00,148.00 413.00,168.00 413.00,168.00
             413.00,168.00 428.00,168.00 428.00,168.00
             428.00,168.00 415.00,167.00 415.00,167.00
             415.00,167.00 415.00,159.00 415.00,159.00
             415.00,159.00 427.00,159.00 427.00,159.00
             427.00,159.00 427.00,157.00 427.00,157.00
             427.00,157.00 415.00,157.00 415.00,157.00
             415.00,157.00 415.00,150.00 415.00,150.00
             415.00,150.00 428.00,150.00 428.00,150.00
             428.00,150.00 428.00,148.00 428.00,148.00
             428.00,148.00 413.00,148.00 413.00,148.00 Z
           M 564.00,148.00
           C 565.46,154.00 565.46,162.00 564.00,168.00
             567.08,165.24 566.30,156.15 565.94,152.06
             565.74,149.63 565.70,149.53 564.00,148.00 Z
           M 181.00,164.00
           C 179.08,164.87 176.19,166.85 174.09,166.26
             170.17,165.16 169.56,158.99 173.23,156.74
             175.64,155.26 178.64,157.10 181.00,158.00
             176.96,150.68 168.66,153.54 168.49,161.00
             168.33,167.90 176.48,172.45 181.00,164.00 Z
           M 224.00,153.96
           C 224.00,153.96 224.00,168.00 224.00,168.00
             224.00,168.00 226.00,168.00 226.00,168.00
             226.00,165.39 225.68,160.33 227.02,158.16
             229.13,154.76 232.62,155.95 233.84,160.02
             234.11,161.61 234.00,166.13 233.84,168.00
             233.84,168.00 236.00,168.00 236.00,168.00
             236.00,163.72 237.11,155.52 231.89,153.96
             231.89,153.96 224.00,153.96 224.00,153.96 Z
           M 252.00,164.00
           C 249.96,164.93 247.41,166.84 245.14,165.84
             241.29,164.14 241.44,157.59 245.14,156.32
             247.07,155.66 250.15,157.30 252.00,158.00
             251.25,156.63 251.15,155.90 249.71,154.89
             248.35,153.95 246.66,153.65 245.04,153.91
             236.20,155.32 239.78,172.75 248.86,167.81
             250.78,166.77 251.07,165.74 252.00,164.00 Z
           M 262.00,158.00
           C 266.91,155.34 268.08,154.48 272.00,159.00
             269.57,159.61 265.12,160.22 263.32,161.74
             260.42,164.18 261.38,167.70 265.06,168.24
             265.06,168.24 274.00,168.24 274.00,168.24
             274.00,165.14 274.42,158.55 272.98,156.28
             270.71,152.70 264.09,151.98 262.00,158.00 Z
           M 299.00,164.00
           C 293.56,166.45 290.39,168.87 288.00,161.00
             288.00,161.00 299.00,161.00 299.00,161.00
             297.74,150.40 287.81,152.94 286.32,159.02
             284.17,167.75 294.20,172.97 299.00,164.00 Z
           M 303.00,154.22
           C 303.00,154.22 303.00,168.00 303.00,168.00
             303.00,168.00 305.00,168.00 305.00,168.00
             305.00,165.21 304.75,153.31 310.70,156.17
             313.77,157.64 313.00,165.06 313.00,168.00
             313.00,168.00 315.00,168.00 315.00,168.00
             315.00,164.55 315.94,156.35 312.57,154.22
             310.65,153.37 305.46,154.03 303.00,154.22 Z
           M 432.00,154.00
           C 432.00,154.00 432.00,168.00 432.00,168.00
             432.00,168.00 434.00,168.00 434.00,168.00
             434.00,166.00 433.99,152.43 439.42,156.74
             441.56,158.45 441.00,165.35 441.00,168.00
             441.00,168.00 443.00,168.00 443.00,168.00
             443.00,164.85 442.50,158.76 445.41,156.74
             449.16,154.15 450.80,160.48 450.82,163.00
             450.83,164.81 450.42,166.27 450.00,168.00
             450.00,168.00 453.00,168.00 453.00,168.00
             451.86,163.29 453.04,148.00 444.00,156.00
             438.49,152.78 438.07,154.06 432.00,154.00 Z
           M 457.00,154.00
           C 457.00,154.00 457.00,174.00 457.00,174.00
             457.00,174.00 459.00,174.00 459.00,174.00
             459.00,174.00 459.00,167.89 459.00,167.89
             461.33,168.36 463.64,168.95 465.87,167.89
             470.13,165.56 470.89,158.81 467.49,155.52
             464.73,152.86 460.52,154.18 457.00,154.00 Z
           M 496.00,164.00
           C 490.34,166.20 487.29,168.53 485.00,161.00
             485.00,161.00 496.00,161.00 496.00,161.00
             494.32,150.76 484.85,152.77 483.32,159.02
             481.15,167.83 491.12,173.13 496.00,164.00 Z
           M 509.00,163.00
           C 505.82,168.62 503.61,166.12 499.00,164.00
             500.44,166.69 501.59,168.43 505.00,168.59
             507.98,168.72 511.59,166.66 510.34,163.21
             509.32,160.36 503.68,159.03 501.00,158.00
             501.00,158.00 501.00,156.00 501.00,156.00
             501.00,156.00 510.00,157.00 510.00,157.00
             504.89,149.15 494.47,157.59 504.04,161.61
             504.04,161.61 509.00,163.00 509.00,163.00 Z
           M 515.00,158.00
           C 520.05,155.70 520.81,154.16 525.00,159.00
             522.57,159.61 518.12,160.22 516.32,161.74
             513.42,164.18 514.38,167.70 518.06,168.24
             518.06,168.24 527.00,168.24 527.00,168.24
             527.00,165.15 527.42,158.53 525.98,156.28
             523.71,152.74 517.00,152.45 515.00,158.00 Z
           M 531.00,154.00
           C 532.34,159.49 532.34,162.51 531.00,168.00
             535.39,164.06 530.50,156.21 539.00,156.00
             536.70,152.99 534.56,153.97 531.00,154.00 Z
           M 548.00,158.00
           C 552.91,155.74 554.45,153.48 558.00,159.00
             555.57,159.61 551.12,160.22 549.32,161.74
             546.42,164.18 547.38,167.70 551.06,168.24
             551.06,168.24 560.00,168.24 560.00,168.24
             560.00,165.09 560.47,157.73 558.83,155.54
             556.84,152.90 550.00,152.44 548.00,158.00 Z
           M 154.00,154.00
           C 157.53,161.58 157.39,160.83 153.00,168.00
             156.77,166.78 156.89,166.32 159.00,163.00
             159.00,163.00 165.00,168.00 165.00,168.00
             161.99,159.97 161.01,162.14 165.00,154.00
             165.00,154.00 160.00,159.00 160.00,159.00
             160.00,159.00 154.00,154.00 154.00,154.00 Z
           M 196.00,164.00
           C 190.35,166.60 188.82,168.54 185.00,162.00
             185.00,162.00 197.00,161.00 197.00,161.00
             196.39,158.67 195.96,156.42 193.73,155.02
             188.97,152.05 183.21,155.55 183.21,161.00
             183.21,168.36 193.15,172.59 196.00,164.00 Z
           M 195.00,159.00
           C 195.00,159.00 186.00,160.00 186.00,160.00
             187.91,154.01 191.66,154.11 195.00,159.00 Z
           M 220.00,164.00
           C 213.51,166.52 212.93,167.96 208.00,162.00
             208.00,162.00 220.00,161.00 220.00,161.00
             217.79,150.74 208.07,153.08 206.61,159.02
             204.77,166.49 214.02,173.85 220.00,164.00 Z
           M 218.00,160.00
           C 218.00,160.00 209.00,160.00 209.00,160.00
             211.05,153.58 215.72,153.86 218.00,160.00 Z
           M 255.00,154.00
           C 255.00,154.00 255.00,168.00 255.00,168.00
             255.00,168.00 257.00,168.00 257.00,168.00
             257.00,168.00 257.00,154.00 257.00,154.00
             257.00,154.00 255.00,154.00 255.00,154.00 Z
           M 297.00,160.00
           C 297.00,160.00 288.00,160.00 288.00,160.00
             290.01,153.71 294.99,153.71 297.00,160.00 Z
           M 348.00,158.00
           C 353.05,155.70 353.81,154.16 358.00,159.00
             355.57,159.61 351.12,160.22 349.32,161.74
             346.42,164.18 347.38,167.70 351.06,168.24
             351.06,168.24 360.00,168.24 360.00,168.24
             360.00,165.22 360.42,158.48 358.98,156.31
             357.18,153.62 350.10,152.02 348.00,158.00 Z
           M 371.00,154.00
           C 371.00,158.37 369.49,167.29 375.05,168.24
             375.05,168.24 383.00,168.24 383.00,168.24
             383.00,168.24 383.00,154.00 383.00,154.00
             383.00,154.00 381.00,154.00 381.00,154.00
             381.00,156.79 381.25,168.69 375.30,165.83
             372.23,164.36 373.00,156.94 373.00,154.00
             373.00,154.00 371.00,154.00 371.00,154.00 Z
           M 392.13,155.74
           C 399.26,156.04 398.47,164.98 394.73,166.34
             389.74,168.16 386.17,159.47 392.13,155.74 Z
           M 462.13,155.71
           C 470.22,155.39 468.25,165.07 464.73,166.34
             459.76,168.15 456.17,159.56 462.13,155.71 Z
           M 473.00,154.00
           C 474.08,160.04 474.48,161.90 473.00,168.00
             473.00,168.00 476.00,168.00 476.00,168.00
             474.78,162.92 474.35,156.77 481.00,156.00
             478.72,153.52 476.22,154.16 473.00,154.00 Z
           M 494.00,160.00
           C 494.00,160.00 485.00,160.00 485.00,160.00
             487.01,153.71 491.99,153.71 494.00,160.00 Z
           M 541.00,154.00
           C 541.00,154.00 541.00,168.00 541.00,168.00
             541.00,168.00 543.00,168.00 543.00,168.00
             543.00,168.00 543.00,154.00 543.00,154.00
             543.00,154.00 541.00,154.00 541.00,154.00 Z
           M 272.00,161.00
           C 271.63,162.68 271.52,164.12 270.26,165.48
             266.28,169.77 259.30,163.68 268.02,161.63
             268.02,161.63 272.00,161.00 272.00,161.00 Z
           M 358.00,161.00
           C 357.63,162.68 357.52,164.12 356.26,165.48
             352.28,169.77 345.30,163.68 354.02,161.63
             354.02,161.63 358.00,161.00 358.00,161.00 Z
           M 525.00,161.00
           C 524.63,162.68 524.52,164.12 523.26,165.48
             519.28,169.77 512.30,163.68 521.02,161.63
             521.02,161.63 525.00,161.00 525.00,161.00 Z
           M 558.00,161.00
           C 556.71,166.86 554.67,168.10 549.00,166.00
             550.89,161.28 553.28,161.64 558.00,161.00 Z" />
</svg>
