<?xml version="1.0" encoding="UTF-8" standalone="no"?>
<!DOCTYPE svg PUBLIC "-//W3C//DTD SVG 20010904//EN"
              "http://www.w3.org/TR/2001/REC-SVG-20010904/DTD/svg10.dtd">

<svg xmlns="http://www.w3.org/2000/svg"
     width="3.06333in" height="0.406667in"
     viewBox="0 0 919 122">
  <path id="Selection"
        fill="black" stroke="black" stroke-width="1"
        d="M 276.04,11.78
           C 266.49,17.16 273.74,26.31 279.98,24.22
             287.38,21.74 285.79,10.42 276.04,11.78 Z
           M 759.11,11.75
           C 751.50,16.52 755.95,26.09 762.98,24.53
             770.19,22.93 770.19,9.59 759.11,11.75 Z
           M 242.00,13.00
           C 242.00,13.00 242.00,50.00 242.00,50.00
             235.09,43.16 229.31,38.46 219.00,39.09
             181.90,41.37 180.94,107.69 219.00,109.91
             229.35,110.51 235.06,105.87 242.00,99.00
             242.00,99.00 242.00,109.00 242.00,109.00
             242.00,109.00 252.00,109.00 252.00,109.00
             252.00,109.00 252.00,13.00 252.00,13.00
             252.00,13.00 242.00,13.00 242.00,13.00 Z
           M 436.00,13.00
           C 436.00,13.00 436.00,109.00 436.00,109.00
             436.00,109.00 446.00,109.00 446.00,109.00
             446.00,109.00 446.00,13.00 446.00,13.00
             446.00,13.00 436.00,13.00 436.00,13.00 Z
           M 7.00,109.00
           C 7.00,109.00 11.00,109.00 11.00,109.00
             19.88,108.83 17.60,104.96 18.83,92.00
             18.83,92.00 20.09,70.00 20.09,70.00
             20.09,70.00 22.00,35.00 22.00,35.00
             26.25,39.46 27.36,46.29 29.34,52.00
             29.34,52.00 41.67,87.00 41.67,87.00
             42.79,90.32 47.32,104.44 49.51,105.98
             50.75,106.85 52.53,106.96 54.00,106.96
             61.47,106.96 62.34,98.93 64.58,93.00
             64.58,93.00 86.00,33.00 86.00,33.00
             86.00,33.00 89.17,60.00 89.17,60.00
             89.17,60.00 91.17,84.00 91.17,84.00
             91.17,84.00 93.00,109.00 93.00,109.00
             93.00,109.00 104.00,109.00 104.00,109.00
             104.00,109.00 100.17,64.00 100.17,64.00
             100.17,64.00 96.00,17.00 96.00,17.00
             96.00,17.00 82.00,17.00 82.00,17.00
             82.00,17.00 68.42,54.00 68.42,54.00
             68.42,54.00 54.00,93.00 54.00,93.00
             54.00,93.00 33.67,35.00 33.67,35.00
             33.67,35.00 26.49,18.02 26.49,18.02
             26.49,18.02 22.00,17.02 22.00,17.02
             22.00,17.02 14.60,18.02 14.60,18.02
             14.60,18.02 12.97,24.00 12.97,24.00
             12.97,24.00 11.91,39.00 11.91,39.00
             11.91,39.00 10.09,60.00 10.09,60.00
             10.09,60.00 8.83,81.00 8.83,81.00
             8.83,81.00 7.00,109.00 7.00,109.00 Z
           M 500.00,93.00
           C 500.00,95.61 499.54,102.34 500.99,104.30
             502.99,106.99 510.74,108.53 514.00,109.08
             527.41,111.34 545.61,109.46 551.52,95.00
             552.97,91.45 553.00,88.74 553.00,85.00
             553.00,81.47 553.02,79.38 551.73,76.00
             545.09,58.56 519.81,59.81 512.09,46.00
             508.00,38.69 514.10,30.80 521.00,28.26
             530.27,24.85 539.49,28.39 548.00,32.00
             548.00,32.00 548.00,27.00 548.00,27.00
             547.96,25.19 548.02,22.98 546.98,21.42
             544.59,17.83 535.04,17.05 531.00,17.00
             514.38,16.81 497.88,23.32 499.09,43.00
             500.11,59.42 515.60,64.00 528.00,70.25
             534.84,73.69 542.94,77.90 541.77,87.00
             541.34,90.40 539.47,93.40 536.90,95.61
             526.59,104.45 510.32,98.43 500.00,93.00 Z
           M 351.00,97.00
           C 345.60,98.45 343.93,99.84 338.00,99.99
             332.16,100.13 326.99,99.55 322.01,96.15
             307.67,86.35 307.07,63.41 322.01,52.64
             332.25,45.24 340.17,48.15 351.00,51.00
             351.00,48.62 351.29,44.39 349.98,42.42
             348.32,39.92 344.72,39.41 342.00,39.00
             335.36,38.01 328.41,38.27 322.00,40.55
             307.74,45.62 300.01,59.34 300.01,74.00
             300.01,88.42 307.80,102.84 322.00,107.64
             329.17,110.06 335.60,110.63 343.00,108.98
             345.40,108.45 348.52,107.77 349.98,105.58
             351.29,103.61 351.00,99.38 351.00,97.00 Z
           M 835.00,96.00
           C 829.44,98.36 827.23,99.83 821.00,99.99
             816.65,100.09 813.02,99.98 809.00,98.08
             785.05,86.75 791.85,46.72 822.00,48.04
             827.34,48.27 830.22,49.97 835.00,52.00
             835.00,49.55 835.36,44.47 833.98,42.51
             830.08,36.95 813.78,38.24 808.00,39.76
             794.04,43.42 784.18,56.71 784.00,71.00
             783.82,86.25 787.15,98.77 802.00,106.19
             809.06,109.72 818.29,110.74 826.00,109.19
             828.62,108.67 832.40,107.96 833.98,105.58
             835.35,103.53 835.00,98.53 835.00,96.00 Z
           M 654.00,51.00
           C 654.00,51.00 653.00,40.00 653.00,40.00
             653.00,40.00 643.00,40.00 643.00,40.00
             643.00,40.00 643.00,95.00 643.00,95.00
             643.00,95.00 642.00,109.00 642.00,109.00
             642.00,109.00 653.00,109.00 653.00,109.00
             653.00,109.00 653.00,81.00 653.00,81.00
             653.00,76.42 652.64,69.22 653.76,65.00
             655.32,59.14 659.24,52.67 665.00,50.23
             668.47,48.76 672.32,49.00 676.00,49.00
             676.00,46.86 676.30,42.27 674.98,40.60
             673.44,38.66 670.14,39.08 668.00,39.47
             660.82,40.78 656.65,44.24 654.00,51.00 Z
           M 174.00,96.00
           C 167.74,98.65 163.97,100.27 157.00,100.63
             143.67,101.31 132.22,92.46 131.00,79.00
             131.00,79.00 178.00,79.00 178.00,79.00
             178.00,68.15 179.24,57.96 171.67,49.03
             161.07,36.48 138.99,36.95 128.21,49.03
             121.09,57.03 119.88,66.82 120.00,77.00
             120.20,93.44 129.86,105.49 146.00,108.78
             153.30,110.57 158.76,110.26 166.00,108.78
             168.22,108.06 171.60,107.29 173.01,105.35
             174.38,103.46 174.00,98.38 174.00,96.00 Z
           M 273.00,40.00
           C 273.00,40.00 273.00,109.00 273.00,109.00
             273.00,109.00 283.00,109.00 283.00,109.00
             283.00,109.00 283.00,40.00 283.00,40.00
             283.00,40.00 273.00,40.00 273.00,40.00 Z
           M 370.00,54.00
           C 380.52,49.54 399.31,43.43 404.20,59.00
             405.17,62.09 405.00,65.78 405.00,69.00
             395.69,69.00 384.58,68.25 376.00,72.33
             362.14,78.91 361.30,97.27 372.02,105.58
             378.91,110.93 391.52,111.20 399.00,106.91
             401.29,105.60 403.10,103.79 405.00,102.00
             405.00,102.00 405.00,109.00 405.00,109.00
             405.00,109.00 416.00,109.00 416.00,109.00
             416.00,109.00 416.00,67.00 416.00,67.00
             415.93,61.05 414.64,52.97 411.15,48.04
             405.31,39.78 395.92,39.99 387.00,40.00
             382.65,40.01 374.79,40.34 371.60,43.70
             369.47,45.95 370.00,51.03 370.00,54.00 Z
           M 622.00,96.00
           C 608.91,101.52 592.77,104.10 582.94,90.96
             579.92,86.93 579.36,83.65 578.00,79.00
             578.00,79.00 617.00,79.00 617.00,79.00
             618.99,79.00 622.81,79.23 624.40,77.98
             626.44,76.36 626.04,71.41 625.99,69.00
             625.82,62.23 623.93,54.37 619.61,49.02
             609.95,37.03 589.01,37.11 578.04,47.18
             570.67,53.95 568.05,62.26 568.00,72.00
             567.93,87.85 570.80,100.23 587.00,107.12
             594.80,110.44 603.81,110.46 612.00,108.91
             614.46,108.44 619.46,107.36 621.01,105.30
             622.38,103.47 622.00,98.33 622.00,96.00 Z
           M 681.00,40.00
           C 681.00,40.00 699.00,93.00 699.00,93.00
             704.07,107.90 702.91,108.94 712.00,109.00
             712.00,109.00 718.00,109.00 718.00,109.00
             718.00,109.00 742.00,40.00 742.00,40.00
             742.00,40.00 731.00,40.00 731.00,40.00
             731.00,40.00 712.00,100.00 712.00,100.00
             712.00,100.00 704.00,78.00 704.00,78.00
             704.00,78.00 692.00,40.00 692.00,40.00
             692.00,40.00 681.00,40.00 681.00,40.00 Z
           M 756.00,40.00
           C 756.00,40.00 756.00,109.00 756.00,109.00
             756.00,109.00 767.00,109.00 767.00,109.00
             767.00,109.00 767.00,40.00 767.00,40.00
             767.00,40.00 756.00,40.00 756.00,40.00 Z
           M 902.00,96.00
           C 895.74,98.65 891.97,100.27 885.00,100.63
             871.67,101.31 860.22,92.46 859.00,79.00
             859.00,79.00 906.00,79.00 906.00,79.00
             906.00,68.15 907.24,57.96 899.67,49.03
             889.07,36.48 866.99,36.95 856.21,49.03
             849.09,57.03 847.88,66.82 848.00,77.00
             848.20,93.44 857.86,105.49 874.00,108.78
             881.30,110.57 886.76,110.26 894.00,108.78
             896.22,108.06 899.60,107.29 901.01,105.35
             902.38,103.46 902.00,98.38 902.00,96.00 Z
           M 168.00,70.00
           C 168.00,70.00 131.00,70.00 131.00,70.00
             131.51,47.45 154.53,44.23 163.47,54.21
             167.53,58.75 167.95,64.24 168.00,70.00 Z
           M 217.00,49.22
           C 219.10,49.11 220.87,48.94 223.00,49.22
             248.59,50.19 249.33,101.28 220.00,99.96
             196.71,98.91 195.55,56.31 217.00,49.22 Z
           M 616.00,70.00
           C 616.00,70.00 578.00,70.00 578.00,70.00
             579.37,62.77 580.83,57.20 587.02,52.42
             594.67,46.49 606.71,48.06 612.35,56.02
             615.18,60.00 615.78,65.25 616.00,70.00 Z
           M 896.00,70.00
           C 896.00,70.00 859.00,70.00 859.00,70.00
             859.51,47.45 882.53,44.23 891.47,54.21
             895.53,58.75 895.95,64.24 896.00,70.00 Z
           M 405.00,77.00
           C 405.00,77.00 405.00,85.00 405.00,85.00
             404.96,88.26 404.92,91.09 403.15,93.98
             398.51,101.54 384.41,104.03 378.43,96.87
             376.91,95.06 376.34,93.32 376.11,91.00
             375.34,83.08 379.84,79.65 387.00,78.02
             391.36,77.02 393.61,77.01 398.00,77.00
             398.00,77.00 405.00,77.00 405.00,77.00 Z" />
</svg>
